<mxfile host="65bd71144e" modified="2021-01-03T09:17:49.643Z" agent="5.0 (Macintosh; Intel Mac OS X 11_0_0) AppleWebKit/537.36 (KHTML, like Gecko) Code/1.52.1 Chrome/83.0.4103.122 Electron/9.3.5 Safari/537.36" etag="Ea_IvO4DfBN_aZSuuEbZ" version="14.1.8" type="embed">
    <diagram id="y2M6MArJaO3prjYNANj1" name="Page-1">
        <mxGraphModel dx="1066" dy="836" grid="1" gridSize="10" guides="1" tooltips="1" connect="1" arrows="1" fold="1" page="1" pageScale="1" pageWidth="1169" pageHeight="827" math="0" shadow="0">
            <root>
                <mxCell id="0"/>
                <mxCell id="1" parent="0"/>
                <mxCell id="2" value="" style="shape=image;verticalLabelPosition=bottom;labelBackgroundColor=#ffffff;verticalAlign=top;aspect=fixed;imageAspect=0;image=data:image/png,iVBORw0KGgoAAAANSUhEUgAAAMQAAAAyCAYAAAADbXRvAAAK3mlDQ1BJQ0MgUHJvZmlsZQAASImVlwdYU9kSgM+96Y2WEIqU0Jv0FkBK6KH3JiohCSSUGBMCgg2VxRWsqIiAuqKrIgquroCsBbFgWwQLdgVZFJR1sSAqKnuBR9jd9733vjf5TubPZM7MnPOdc7+5AFBCOGJxFqwEQLYoRxIV4M1ISExi4H4DZKAN8MAS0DlcqZgVERECEJnWf5cP3QCa0LcsJ2L9+///VVR4fCkXACgZ4VSelJuNcCsyXnPFkhwAUEcRu0FejniCbyNMkyAFIjwwwelT/GWCUycZrTTpExPlg7AhAHgyhyNJB4Bsg9gZudx0JA45AmEbEU8oQrgQYQ+ugMNDGMkLZmdnL5zgIYRNEX8xABQawszUv8RM/1v8VHl8DiddzlPrmhS8r1AqzuLk/59b878lO0s2ncMYGWSBJDAK0XRk/+5lLgyWsyg1LHyahbxJ/0kWyAJjp5kr9UmaZh7HN1g+NyssZJrThP5seZwcdsw086V+0dMsWRglz5Um8WFNM0cyk1eWGSu3C/hsefwCQUz8NOcK48KmWZoZHTzj4yO3S2RR8vr5ogDvmbz+8rVnS/+yXiFbPjdHEBMoXztnpn6+iDUTU5ogr43H9/Wb8YmV+4tzvOW5xFkRcn9+VoDcLs2Nls/NQQ7nzNwI+R5mcIIiphn4Aj8QgnwYIBY4AHtgB2xAJAA5/MU5E4vxWSjOlwjTBTkMFnLj+Ay2iGs1m2FnY4ecvIn7O3Uk3j+dvJdQ3pMZ2/xcAKy7EWPVjC3rGwBnRgBQ7JuxWaQCoOwAwLl6rkySO2VDT3xhABEoAhrQADrAAJgiTwg74ATcgBdScRAIBzEgEcwHXCAA2UAC8sBSsBIUg1KwCWwDlWA32AsOgiPgGGgCp8A5cAlcA53gDngIekA/eAWGwQcwBkEQDqJAVEgD0oWMIAvIDmJCHpAfFAJFQYlQCpQOiSAZtBRaDZVCZVAltAeqhX6CTkLnoCtQF3Qf6oUGobfQZxgFk2EarA0bw9YwE2bBwXAMPA9OhxfBBXARvAGugGvgw3AjfA6+Bt+Be+BX8AgKoEgoOkoPZYlionxQ4agkVBpKglqOKkGVo2pQ9agWVDvqFqoHNYT6hMaiqWgG2hLthg5Ex6K56EXo5eh16Er0QXQj+gL6FroXPYz+hqFgtDAWGFcMG5OAScfkYYox5Zj9mBOYi5g7mH7MBywWS8eaYJ2xgdhEbAZ2CXYddie2AduK7cL2YUdwOJwGzgLnjgvHcXA5uGLcDtxh3FncTVw/7iOehNfF2+H98Ul4EX4Vvhx/CH8GfxP/Aj9GUCIYEVwJ4QQeIZ+wkbCP0EK4QegnjBGViSZEd2IMMYO4klhBrCdeJD4iviORSPokF1IkSUgqJFWQjpIuk3pJn8gqZHOyDzmZLCNvIB8gt5Lvk99RKBRjihcliZJD2UCppZynPKF8VKAqWCmwFXgKKxSqFBoVbiq8ViQoGimyFOcrFiiWKx5XvKE4pERQMlbyUeIoLVeqUjqpdFdpRJmqbKscrpytvE75kPIV5QEVnIqxip8KT6VIZa/KeZU+KopqQPWhcqmrqfuoF6n9NCzNhMamZdBKaUdoHbRhVRVVB9U41cWqVaqnVXvoKLoxnU3Pom+kH6N30z+raaux1Phqa9Xq1W6qjarPUvdS56uXqDeo31H/rMHQ8NPI1Nis0aTxWBOtaa4ZqZmnuUvzoubQLNost1ncWSWzjs16oAVrmWtFaS3R2qt1XWtEW0c7QFusvUP7vPaQDl3HSydDZ6vOGZ1BXaquh65Qd6vuWd2XDFUGi5HFqGBcYAzraekF6sn09uh16I3pm+jH6q/Sb9B/bEA0YBqkGWw1aDMYNtQ1DDVcalhn+MCIYMQ0EhhtN2o3GjU2MY43XmPcZDxgom7CNikwqTN5ZEox9TRdZFpjetsMa8Y0yzTbadZpDps7mgvMq8xvWMAWThZCi50WXbMxs11mi2bXzL5rSbZkWeZa1ln2WtGtQqxWWTVZvbY2tE6y3mzdbv3NxtEmy2afzUNbFdsg21W2LbZv7cztuHZVdrftKfb+9ivsm+3fOFg48B12OdxzpDqGOq5xbHP86uTsJHGqdxp0NnROca52vsukMSOY65iXXTAu3i4rXE65fHJ1cs1xPeb6h5ulW6bbIbeBOSZz+HP2zelz13fnuO9x7/FgeKR4/ODR46nnyfGs8XzmZeDF89rv9YJlxspgHWa99rbxlnif8B71cfVZ5tPqi/IN8C3x7fBT8Yv1q/R74q/vn+5f5z8c4BiwJKA1EBMYHLg58C5bm81l17KHg5yDlgVdCCYHRwdXBj8LMQ+RhLSEwqFBoVtCH4UZhYnCmsJBODt8S/jjCJOIRRG/RGIjIyKrIp9H2UYtjWqPpkYviD4U/SHGO2ZjzMNY01hZbFucYlxyXG3caLxvfFl8T4J1wrKEa4maicLE5iRcUlzS/qSRuX5zt83tT3ZMLk7unmcyb/G8K/M152fNP71AcQFnwfEUTEp8yqGUL5xwTg1nJJWdWp06zPXhbue+4nnxtvIG+e78Mv6LNPe0srSBdPf0LemDAk9BuWBI6COsFL7JCMzYnTGaGZ55IHM8Kz6rIRufnZJ9UqQiyhRdWKizcPHCLrGFuFjcs8h10bZFw5JgyX4pJJ0nbc6hIY3SdZmp7DtZb65HblXux7y4vOOLlReLFl/PN89fm/+iwL/gxyXoJdwlbUv1lq5c2ruMtWzPcmh56vK2FQYrilb0FwYUHlxJXJm58tdVNqvKVr1fHb+6pUi7qLCo77uA7+qKFYolxXfXuK3Z/T36e+H3HWvt1+5Y+62EV3K11Ka0vPTLOu66q+tt11esH9+QtqFjo9PGXZuwm0Sbujd7bj5YplxWUNa3JXRL41bG1pKt77ct2Hal3KF893bidtn2noqQiuYdhjs27fhSKai8U+Vd1VCtVb22enQnb+fNXV676ndr7y7d/fkH4Q/39gTsaawxrinfi92bu/f5vrh97T8yf6zdr7m/dP/XA6IDPQejDl6oda6tPaR1aGMdXCerGzycfLjziO+R5nrL+j0N9IbSo+Co7OjLn1J+6j4WfKztOPN4/c9GP1efoJ4oaYQa8xuHmwRNPc2JzV0ng062tbi1nPjF6pcDp/ROVZ1WPb3xDPFM0ZnxswVnR1rFrUPn0s/1tS1oe3g+4fztC5EXOi4GX7x8yf/S+XZW+9nL7pdPXXG9cvIq82rTNadrjdcdr5/41fHXEx1OHY03nG80d7p0tnTN6Tpz0/PmuVu+ty7dZt++difsTld3bPe9u8l3e+7x7g3cz7r/5kHug7GHhY8wj0oeKz0uf6L1pOap2dOGHqee072+vdefRT972Mfte/Wb9Lcv/UXPKc/LX+i+qB2wGzg16D/Y+XLuy/5X4ldjQ8W/K/9e/dr09c9/eP1xfThhuP+N5M3423XvNN4deO/wvm0kYuTJh+wPY6MlHzU+HvzE/NT+Of7zi7G8L7gvFV/NvrZ8C/72aDx7fFzMkXAmWwEUMuC0NADeHkD640QAqJ0AEOdO9deTAk29E0wS+E881YNPihMA+woBmGi9whC9qxUAEy8AFJARgPwOagWwvb18/EukafZ2U7E0LwJAyh8fH1BD5rwD4Gvj+PjorfHxsVoAcHgA1j+d6usnROkw8ibTaWfjEvLg3XzwT5nq+f+yxn9qMFGBA/in/hMy9x1kCHY3LgAAAFZlWElmTU0AKgAAAAgAAYdpAAQAAAABAAAAGgAAAAAAA5KGAAcAAAASAAAARKACAAQAAAABAAAAxKADAAQAAAABAAAAMgAAAABBU0NJSQAAAFNjcmVlbnNob3Tpw6ePAAAB1WlUWHRYTUw6Y29tLmFkb2JlLnhtcAAAAAAAPHg6eG1wbWV0YSB4bWxuczp4PSJhZG9iZTpuczptZXRhLyIgeDp4bXB0az0iWE1QIENvcmUgNi4wLjAiPgogICA8cmRmOlJERiB4bWxuczpyZGY9Imh0dHA6Ly93d3cudzMub3JnLzE5OTkvMDIvMjItcmRmLXN5bnRheC1ucyMiPgogICAgICA8cmRmOkRlc2NyaXB0aW9uIHJkZjphYm91dD0iIgogICAgICAgICAgICB4bWxuczpleGlmPSJodHRwOi8vbnMuYWRvYmUuY29tL2V4aWYvMS4wLyI+CiAgICAgICAgIDxleGlmOlBpeGVsWURpbWVuc2lvbj41MDwvZXhpZjpQaXhlbFlEaW1lbnNpb24+CiAgICAgICAgIDxleGlmOlBpeGVsWERpbWVuc2lvbj4xOTY8L2V4aWY6UGl4ZWxYRGltZW5zaW9uPgogICAgICAgICA8ZXhpZjpVc2VyQ29tbWVudD5TY3JlZW5zaG90PC9leGlmOlVzZXJDb21tZW50PgogICAgICA8L3JkZjpEZXNjcmlwdGlvbj4KICAgPC9yZGY6UkRGPgo8L3g6eG1wbWV0YT4K1x2OdQAADvFJREFUeAHtXAtUlVUW3k4oOCbgC1FJRbOl5gPSoocmvpZWPlDLTNQgK7U00VGnnNFAHbMyA7WU8QG+yxKxNGukxMLlaJgYGhiaiIpLRAWfaDTO+Q6en3Pf/4V7r105ey34z/ucf3P2v/f59j5Uu8WIFCkOKA5wDvxF8UFxQHGgnANKIMp5oVKKA6QEQm0CxQGJA0ogJGaopOKAEgi1BxQHJA4ogZCYoZKKAw4XiKjj31O13Qup+6EkKiq9oTisOOBWHHCoQESf3Etx+RmcAanFp2hQ9ja3YoZarOKAwwQi98YlTRh8PGpoQpF84ZjisuKA23DAYQIRnbdXM5ESW/UmIRSTjv/gNsxQC1UccIhAwDxaVZDFuTmwXgsKq9uSou97lOdzSy5R7G0zSmZ3Ucl12pX3G+GpSHHgz8KBao6IZQo9tIl2FZ/m73S8cwQ19/Tm6eb7E+hEyWXy9fCk450i+BMVEILghDjKLb5Ivp5etHP4GApq2Jj3Ub8UB+4kByqtIXBGEMLwdtMQTRjwUon39+bvBrQJB25BUd9+yYUB+aIbJTQoabXSFII56nlHOVBpgQDMCsKZIapRkMHLhPoEUDefJrwM6BMO3qnMTFqVuZ+XNfP25U9oitj0NIO+KqM4cCc4UCmBwFcfJhEoNrCbZhLJL4IDtqDInBSKTtvBsz7MVEoNH0sd/RrxfNyPaUpLCEapZ4U4AEtk16XTBj/2DuRhbwfRHpMLn0PHWvUpwq+NqDJ44jwxsXEQb1vzYAFdLLjE66Me7kLNfepQbK8B1H19PDedYEolPjPUoL8zMiPffIdu/v47jRnan3qEBOue4tyFIpr83hLyqlGdls2aYrMf5rlYfJmmjR5GT3buYLO9aCD6bV0yVxSZPD9I3EgbvvqOnghuR3FvjTept1Swc18GLVqXRDdvllJ89GRq0rC+SdO3PlxGSTsqjg6ODx9EE9hPRSgyZwclMoAG+ylB+phaGwugTtyZg5R83jzEH1avJR9vYN0W1obhdRXWEDCVhCc6NvBJqxNF3xdCzagmXdmRTdUz8gmmUlTnLrxPaNMWNLBVW56GKZVxNt/qWJWtXLRuM+37OYsyso7SjEUrKf/ced1DfrJ9J+/7ffrPtJeNYY3EPDknTtHBI+b/UOb6y/2QtkQZ2cfo8pVr9PUP+yhuTZKlZgblhUXFNJO98+GcXMK60n7KNKhHBu9VGWHAGIutrBv11gjCABJPa21RN4ntQ0RFWBIGtEFdWNZW7igWexbl5qhCGiLj6jkDmBVnBWsElGn0sdq0tuACbzaxLjOvvGpqXaAltuT8wvOTmJYA6uQKKrxQTDMWrqQVs6e6YjqHzjGkd1cunBj04w3J1KpZE3r6yRCrc8xclEAF54t4myceakfPP9XdpH1IhzY0ckBvOpJ7yqQOBfiYCHqEtTVHj7Rvba7Y4WUw2WVIH+fYoFoNCPsRGx/7VAA+mByCATfAgaAXLK6lQgIhDtIY1ZZ2QJvTZwtpy9ZUJDmtS/qGRvfvQ961/srzMJ0mdn6C4tJ380N38q+HKeyBB2+3du4jbX8mzU/YSFMinW+qOfJNwnp2oUM5x2nNF2VnsnnL11NQ65bU2M/UBMK8Sz75gr7d8xNfQl2f2ux9n7e4nH+OHWm2DtpjlCQQa+a9ZbadKwplkx3zwSyHJYKPr0xoF3smgwnOASouvcmFRK43TtttMskwKxYhfA7GA8t52KxQ74KQXrTW0ByI7sK82+ygDYKWcCUt+2wrbd21x5VTOmQubNygNvfzsc4WXmQmYILZcWEaxa7+XKv7W8RQatuymZZ3x0TyBebUZZsdBCQTH2ZjYUAdyiAoqe2GEJzGts4ldguE0A5QT5jIFuGrsjkljTfr+dhDJNTp6i3fcM0h+sOEglCAAMMKNErUO+PZ49GHtGFnLEygo3nOPb9okzkwMYMJhYfHPXxEaLv3VnxiMHrxlas05f2lWll4/170bJ9uWt5dE4DwBdky2dEOplRy634WwR8xll0CIcOsCM0wJ5FiYPGUD1j/eHUETR8zQlTR3H+v09JIAHkSvglXwLARYX00lOXa9RJ2nlhhsB53yLRrFUjTXhqmLXXFpq/ou70HtPy0+fEc6UIBbP6pVkwlrZObJYSmcMSydQuEbLM186pNUcxcskUpe/bTvsxs3gxQHCC+Ni2a0qBeZQgT6o3RmsR+ZbYtPNiu0BIx4yO01/jplxyatWS1lneXxItMsJ/pVhY7hjVP+yCeLl+9Th+tT6ZUBrOCcG6IGjmEanoZ2ti80g1/BTGoXxDi6HCAdgTpFghoByGJIiTD1gL+FV+mAWqzwzP+aIKgJVAGemfZelHMn4Bhu7EfEA7ZMJ+cSV07dTA4UK/7MoU2fp3qzCmdMvaCv79GTRs35GPjjBb1zmJauLYcjp0wYjB1evABp8x9JwYN9Q7QIqqxLwG9wochm1IVWZcugZDvOuAAo8dmA4aeX1DI1zR9TLiGKKEA6JIQkKxjJygpxdAJJDvnIrdtrMh72dXnlef6Uf/uj2l9AMVmZB/V8u6SWC45C2Ufw/B+PWn4Mz3d5TV0rRPmuhwFAaGA7yIwPZGCMzZw/8QW6eCta1DWSJdARDDJEyQvQpQZPy9dvUar2KEZ1JqZSIN7dTVuwj2ZAiLEWQJ9BAkYFnnEPuHH2RQzPpLuZ1i+oLcXJ9L1GzdF1i2ezZiGmDvpFYO14twwIXywQdndksE1A/gUYMLLBPMJ/gk44+rsjeeaA95sPWRTIDCQcG7ohVnnxq/VYNbpr4ZbXMeEEWXufaj4VcllAiQayzCsK7RErZpeNIsJhaDs3/Io5qNEkXXb561b/6P/sZ+7lYAe5XaK5HAqYFVxMU1+X2gOmFTwatsimwIRcbRMO+iFWbPYRpJhVng+LRE0h4BhgUbBgSfIGIaNZcF/zibY2DNfG6VNg/dI2Py1lv+zJ07kn6XpLA5Jph8zj1Dc6k1y0V2ZRuwTYNWikLG0s91gwlUEY80BrSHcBpaYYFUgMICIZo1qHKwLZoV2EASY1RYBfRJkDYaNYVGyrrhdF96vFw3tGyqWRPPYoX/3gUNa/s+ceHnmfG15csAfQIKVSdu1urs9gTMufGTQHBAOBJ8KQkCqAIdEmfy0KBDoFHP7Ug8kTa8TTsCsowaWY/zyhMZpaBC9MKyr7kzMfuMl6sjCIATFfLSKEBhnDzVqUFdrfjTvtJa2J+FX11d388nvfkx5TEOAnmOOt75dH6FxLwzU+setYbcafzyo5atKAsIBL7VsSsHLbYksCoQMs+qJV8IEby4oU9eAVMX5wNLEcjkOfQKGXcywc5lkGDYmLcXpMKyYe9aESPLyrMGzMEUgFPaQf71ygTiQlaO7656Mw1rbhvXraGlrCZy/tu36L2/SPMCf5kwczdPwO/R4NJinSxhAsGDVZ3TmXFmApbXx7lSdtS93ZdYERCrCr602hDVo1qxAGMOsOM3bIvxRBMyKWHgRuGerH+rhsBMwLKIprcGwropzah3YlGSn3X92p+t5Fa1NSMc25MnuTYAQZ4QwbVuEuwr7D//Km7Vs2pjfdbDVBwF+760sD9d4f8pYgy7zp46jAP8GvAxAwbsrNhjUuyqDPQUY1BqlXipHgmQzx1wfCA8uA+klPVEVGMusQMgHDz3aAZDpovWb+doApYrNrXexaIc+AobFAdsYhn2xfSc+HCJhXQHDYjJElEYO7svnxS85DEUrtJCo7uFBT3Utj/WayBxl1oQCgMLY6AXaaAO6P04YwxbNXrqGSkv/4M2iRj1LHR5oYdAF6Nn8qeVCsv37vSxcfItBG2dnIAzwDwAGhfPMHHETPa/8owH0yBoBNQrN3KTrP0RibPFfYTBmqHcTi0ObCARg1i3nyyT5RXZyt7UwjIzIVRHNOm+yIQ5ucWajCmgUYWZhcxjDsLE9+5dHw6a4Lhr2zZeH02NBFQtFx+G8RvUyLYHXhVAs+3wbQRPg9p2gT9nFox6Rk0WWgtu2otFDntbylhJzmDDgohOoe0gQjRs2wGzT4DatKIaZgIJwnkDYjKtINoUAgUIo5DL4DbDB5fCLaIYSWSPRFvs1cH8i3/DymKIv6jE27kGAcB625lg2+QTh7ADCIUSPdsDmReQqCBCqNZiVN7LyCzDsZnZ1EQdzOPagNYTpBRgWwX84R2QU5FNiZjpFtO9sZTTHVc1+I5KemxSjBcnpHRkw7vLZU2gUu0oqaP7KT0XS4vMDZubY0g7J36ZpdyF8ve/Vzg2WBh3GLgP9mnuSEJoCenf5Bi7o0CDOJnxUxTVizAWhwA/3ITDtYbyRP2Sh3LauFSCMW2gb9BfOY3mzQzMJQRDvaCvsyEQghBOuGlXT9b9ZA07/Luaiy9euE+4DV4ZO3w73gMZ5feMGOuVZanY4Z8c4yZPe5+9Hs9kXdvychVqxf/3yQ7NWaCaBD0Ta2oX8rsJOKQrVTFN+t2Ee8zSbu+ds3H75519pRTGvR1B9Xx8tbykxc9woOnL8JKUfOkJ5Zwr4BSN7PmAy6uVXT9+BX6wFH1dsXNl0EV950QZP+A/0BI7C74AAv7DsrZprAP2hEcwRPvCIspAFxlw7E4FArBKEAou3NLg8UOA9NagOM3eusHME4pIcRffWqknbCnPp4h/mwyeC/Cr2j81w4Adq5Fu7Frt2GaB7ub0f70zwmUB7tWch1wiT0EsNGHy69O1J/AyxPW0fHWP3Ls7cvsvdqEE9Ht6CM4M9/4igT5eH+b1ooGGAWPXSHAYpz1m6lm6WlhJCx+2hwIBGFDGoL/3C/s7CoWpPf2zIMOZNhn9LfHhFf5jn2OS2NqxojyfXMMzXAG2Di2vYr7gVJ1PZP8Boy8fWc7A2+c99EARcudMjDGLiFhfvIe+DhXT+ZIEoqtSznn99OuvvSWdulZiMgzgnmEqAYxW5NwegIWAa6dmo9rwp9i7G1HP+NR7XRCCMG6i84kBV4oAJylSVXl69q+KAMQeUQBhzROWrNAeUQFTpP796eWMOKIEw5ojKV2kOKIGo0n9+9fLGHFACYcwRla/SHFACUaX//OrljTmgBMKYIypfpTmgBKJK//nVyxtzQAmEMUdUvkpz4P+bCOSnWRqiPgAAAABJRU5ErkJggg==;" parent="1" vertex="1">
                    <mxGeometry x="110" y="338" width="196" height="50" as="geometry"/>
                </mxCell>
                <mxCell id="3" value="" style="shape=image;verticalLabelPosition=bottom;labelBackgroundColor=#ffffff;verticalAlign=top;aspect=fixed;imageAspect=0;image=data:image/png,iVBORw0KGgoAAAANSUhEUgAAAG8AAAAyCAYAAABS1YVJAAAK3mlDQ1BJQ0MgUHJvZmlsZQAASImVlwdYU9kSgM+96Y2WEIqU0Jv0FkBK6KH3JiohCSSUGBMCgg2VxRWsqIiAuqKrIgquroCsBbFgWwQLdgVZFJR1sSAqKnuBR9jd9733vjf5TubPZM7MnPOdc7+5AFBCOGJxFqwEQLYoRxIV4M1ISExi4H4DZKAN8MAS0DlcqZgVERECEJnWf5cP3QCa0LcsJ2L9+///VVR4fCkXACgZ4VSelJuNcCsyXnPFkhwAUEcRu0FejniCbyNMkyAFIjwwwelT/GWCUycZrTTpExPlg7AhAHgyhyNJB4Bsg9gZudx0JA45AmEbEU8oQrgQYQ+ugMNDGMkLZmdnL5zgIYRNEX8xABQawszUv8RM/1v8VHl8DiddzlPrmhS8r1AqzuLk/59b878lO0s2ncMYGWSBJDAK0XRk/+5lLgyWsyg1LHyahbxJ/0kWyAJjp5kr9UmaZh7HN1g+NyssZJrThP5seZwcdsw086V+0dMsWRglz5Um8WFNM0cyk1eWGSu3C/hsefwCQUz8NOcK48KmWZoZHTzj4yO3S2RR8vr5ogDvmbz+8rVnS/+yXiFbPjdHEBMoXztnpn6+iDUTU5ogr43H9/Wb8YmV+4tzvOW5xFkRcn9+VoDcLs2Nls/NQQ7nzNwI+R5mcIIiphn4Aj8QgnwYIBY4AHtgB2xAJAA5/MU5E4vxWSjOlwjTBTkMFnLj+Ay2iGs1m2FnY4ecvIn7O3Uk3j+dvJdQ3pMZ2/xcAKy7EWPVjC3rGwBnRgBQ7JuxWaQCoOwAwLl6rkySO2VDT3xhABEoAhrQADrAAJgiTwg74ATcgBdScRAIBzEgEcwHXCAA2UAC8sBSsBIUg1KwCWwDlWA32AsOgiPgGGgCp8A5cAlcA53gDngIekA/eAWGwQcwBkEQDqJAVEgD0oWMIAvIDmJCHpAfFAJFQYlQCpQOiSAZtBRaDZVCZVAltAeqhX6CTkLnoCtQF3Qf6oUGobfQZxgFk2EarA0bw9YwE2bBwXAMPA9OhxfBBXARvAGugGvgw3AjfA6+Bt+Be+BX8AgKoEgoOkoPZYlionxQ4agkVBpKglqOKkGVo2pQ9agWVDvqFqoHNYT6hMaiqWgG2hLthg5Ex6K56EXo5eh16Er0QXQj+gL6FroXPYz+hqFgtDAWGFcMG5OAScfkYYox5Zj9mBOYi5g7mH7MBywWS8eaYJ2xgdhEbAZ2CXYddie2AduK7cL2YUdwOJwGzgLnjgvHcXA5uGLcDtxh3FncTVw/7iOehNfF2+H98Ul4EX4Vvhx/CH8GfxP/Aj9GUCIYEVwJ4QQeIZ+wkbCP0EK4QegnjBGViSZEd2IMMYO4klhBrCdeJD4iviORSPokF1IkSUgqJFWQjpIuk3pJn8gqZHOyDzmZLCNvIB8gt5Lvk99RKBRjihcliZJD2UCppZynPKF8VKAqWCmwFXgKKxSqFBoVbiq8ViQoGimyFOcrFiiWKx5XvKE4pERQMlbyUeIoLVeqUjqpdFdpRJmqbKscrpytvE75kPIV5QEVnIqxip8KT6VIZa/KeZU+KopqQPWhcqmrqfuoF6n9NCzNhMamZdBKaUdoHbRhVRVVB9U41cWqVaqnVXvoKLoxnU3Pom+kH6N30z+raaux1Phqa9Xq1W6qjarPUvdS56uXqDeo31H/rMHQ8NPI1Nis0aTxWBOtaa4ZqZmnuUvzoubQLNost1ncWSWzjs16oAVrmWtFaS3R2qt1XWtEW0c7QFusvUP7vPaQDl3HSydDZ6vOGZ1BXaquh65Qd6vuWd2XDFUGi5HFqGBcYAzraekF6sn09uh16I3pm+jH6q/Sb9B/bEA0YBqkGWw1aDMYNtQ1DDVcalhn+MCIYMQ0EhhtN2o3GjU2MY43XmPcZDxgom7CNikwqTN5ZEox9TRdZFpjetsMa8Y0yzTbadZpDps7mgvMq8xvWMAWThZCi50WXbMxs11mi2bXzL5rSbZkWeZa1ln2WtGtQqxWWTVZvbY2tE6y3mzdbv3NxtEmy2afzUNbFdsg21W2LbZv7cztuHZVdrftKfb+9ivsm+3fOFg48B12OdxzpDqGOq5xbHP86uTsJHGqdxp0NnROca52vsukMSOY65iXXTAu3i4rXE65fHJ1cs1xPeb6h5ulW6bbIbeBOSZz+HP2zelz13fnuO9x7/FgeKR4/ODR46nnyfGs8XzmZeDF89rv9YJlxspgHWa99rbxlnif8B71cfVZ5tPqi/IN8C3x7fBT8Yv1q/R74q/vn+5f5z8c4BiwJKA1EBMYHLg58C5bm81l17KHg5yDlgVdCCYHRwdXBj8LMQ+RhLSEwqFBoVtCH4UZhYnCmsJBODt8S/jjCJOIRRG/RGIjIyKrIp9H2UYtjWqPpkYviD4U/SHGO2ZjzMNY01hZbFucYlxyXG3caLxvfFl8T4J1wrKEa4maicLE5iRcUlzS/qSRuX5zt83tT3ZMLk7unmcyb/G8K/M152fNP71AcQFnwfEUTEp8yqGUL5xwTg1nJJWdWp06zPXhbue+4nnxtvIG+e78Mv6LNPe0srSBdPf0LemDAk9BuWBI6COsFL7JCMzYnTGaGZ55IHM8Kz6rIRufnZJ9UqQiyhRdWKizcPHCLrGFuFjcs8h10bZFw5JgyX4pJJ0nbc6hIY3SdZmp7DtZb65HblXux7y4vOOLlReLFl/PN89fm/+iwL/gxyXoJdwlbUv1lq5c2ruMtWzPcmh56vK2FQYrilb0FwYUHlxJXJm58tdVNqvKVr1fHb+6pUi7qLCo77uA7+qKFYolxXfXuK3Z/T36e+H3HWvt1+5Y+62EV3K11Ka0vPTLOu66q+tt11esH9+QtqFjo9PGXZuwm0Sbujd7bj5YplxWUNa3JXRL41bG1pKt77ct2Hal3KF893bidtn2noqQiuYdhjs27fhSKai8U+Vd1VCtVb22enQnb+fNXV676ndr7y7d/fkH4Q/39gTsaawxrinfi92bu/f5vrh97T8yf6zdr7m/dP/XA6IDPQejDl6oda6tPaR1aGMdXCerGzycfLjziO+R5nrL+j0N9IbSo+Co7OjLn1J+6j4WfKztOPN4/c9GP1efoJ4oaYQa8xuHmwRNPc2JzV0ng062tbi1nPjF6pcDp/ROVZ1WPb3xDPFM0ZnxswVnR1rFrUPn0s/1tS1oe3g+4fztC5EXOi4GX7x8yf/S+XZW+9nL7pdPXXG9cvIq82rTNadrjdcdr5/41fHXEx1OHY03nG80d7p0tnTN6Tpz0/PmuVu+ty7dZt++difsTld3bPe9u8l3e+7x7g3cz7r/5kHug7GHhY8wj0oeKz0uf6L1pOap2dOGHqee072+vdefRT972Mfte/Wb9Lcv/UXPKc/LX+i+qB2wGzg16D/Y+XLuy/5X4ldjQ8W/K/9e/dr09c9/eP1xfThhuP+N5M3423XvNN4deO/wvm0kYuTJh+wPY6MlHzU+HvzE/NT+Of7zi7G8L7gvFV/NvrZ8C/72aDx7fFzMkXAmWwEUMuC0NADeHkD640QAqJ0AEOdO9deTAk29E0wS+E881YNPihMA+woBmGi9whC9qxUAEy8AFJARgPwOagWwvb18/EukafZ2U7E0LwJAyh8fH1BD5rwD4Gvj+PjorfHxsVoAcHgA1j+d6usnROkw8ibTaWfjEvLg3XzwT5nq+f+yxn9qMFGBA/in/hMy9x1kCHY3LgAAAFZlWElmTU0AKgAAAAgAAYdpAAQAAAABAAAAGgAAAAAAA5KGAAcAAAASAAAARKACAAQAAAABAAAAb6ADAAQAAAABAAAAMgAAAABBU0NJSQAAAFNjcmVlbnNob3Ql4JieAAAB1WlUWHRYTUw6Y29tLmFkb2JlLnhtcAAAAAAAPHg6eG1wbWV0YSB4bWxuczp4PSJhZG9iZTpuczptZXRhLyIgeDp4bXB0az0iWE1QIENvcmUgNi4wLjAiPgogICA8cmRmOlJERiB4bWxuczpyZGY9Imh0dHA6Ly93d3cudzMub3JnLzE5OTkvMDIvMjItcmRmLXN5bnRheC1ucyMiPgogICAgICA8cmRmOkRlc2NyaXB0aW9uIHJkZjphYm91dD0iIgogICAgICAgICAgICB4bWxuczpleGlmPSJodHRwOi8vbnMuYWRvYmUuY29tL2V4aWYvMS4wLyI+CiAgICAgICAgIDxleGlmOlBpeGVsWURpbWVuc2lvbj41MDwvZXhpZjpQaXhlbFlEaW1lbnNpb24+CiAgICAgICAgIDxleGlmOlBpeGVsWERpbWVuc2lvbj4xMTE8L2V4aWY6UGl4ZWxYRGltZW5zaW9uPgogICAgICAgICA8ZXhpZjpVc2VyQ29tbWVudD5TY3JlZW5zaG90PC9leGlmOlVzZXJDb21tZW50PgogICAgICA8L3JkZjpEZXNjcmlwdGlvbj4KICAgPC9yZGY6UkRGPgo8L3g6eG1wbWV0YT4KkENl4AAACdBJREFUeAHtWglUFEca/gYQFNeI4Alr8EhAiYoXZs2LxxqjZkViIosioiIBjLcRjZu4bhKPRIMYdXXVF7MqEV2zibuaqHgSdL0vUFHURUgiG1SQeZ6oMFt/Dz10Dd093b4Qmff6f6/p+o/6q+b/pqr+vwbTg1uFFhjklBFwccpZG5MWImCA58RfBAM8AzwnjoATT91YeQZ4ThwBJ566sfIM8Jw4Ak48dWPlGeA5cQSceOrGyjPAc+IIOPHUjZXnxOC56Z371tsumHfDinm0VzkmeJfbXCRePYhtt/IQXLchRjQKRJh3S5uuuhsZBw8h4+B/uGFmzZzO8U+TqY75mfT8JJT/yIQXc91QUlYZhs3NyxBWrxzL/peF6Vcrg+dfux5yOo+oNKzmFgWn36A3uFHYZ+P4p8lUx/x0bZsEnhQ4CkbWA2tIthbnWRsVf/Mf3Ebm3ZuczGB+2QjoAq+DR+UWqWUa5rKHWswMmyeMgC7wvFyBT5uW4dlaxo/vTxjvX7Sb7oRlIktQ6DHo6UdAETw6286WmlRn2MNT+wrML72NH9jT3tMHXm4eqn6lyrv37uHGjZsovH4dnp6eaNTQBz7e3qhVq5bUTHf70aNHOJd9AU0aN4Jvs2a6+0s7XLp8BQ9KS+HH/Pj4eEtV1dqWBY/KgfgC1yrJif1MgmtbkOb/GLSdqlHK9YuIu7JfMCHg0l4IE8oJtT7XCgqwZPlKLF2xqopZYxbwqKF/BJUCdRmgemjX3n2YvzAZpzMzUVpqPZNbtWyB4RHhgr/aDZpw7nZt24KeL7/EyYjZ/M2/8LfVa3DufDZu37lj0/fp3RPDwt/EyKhIm0xrI37CFKzfsJEzHxf/FpIXzONkIiN75iX+7OIQOHKQ+cCEFLOsC9G/8E7MO2TjSx6XYu6PJ2y8XKO4+BaGRI6UBY7sr1+/gcXLVsDHT18dSX3CwiNx5NhxG3DkL/dqHuYuSELc+MnEOqSxk6ZiZGwCDh89xgFHHfelZ4BAiBgx2qEfqcGC5CVVgOvf9xVF4KivbOTN5erbpXRQc0XN5+XqLhULbX+PesLbzACTUomDLHT81EScyTor7SJ8+39Tty4nixoWwfFqzN793+NPsz9UM0FK6iZVPSnf/2AO1qakOrTb+t0OxMSPc2hHBv/4egv+Mmc+Z9v+hSD8+yv1cWTBi/aSVOGcy6rMoHrWcy+6cSCn7MBuWUTwOAVjwrxb2Is4XgpcAy8vHNi9A7R93fwpF+lp32LSuATQ1hkdOZTrp8YkL1teRe3/bHPEjo7GwAH90Kxp0yp6e0F6xkEsWvJXezFohQwZHAY/X19Ol8a26LmffMrJ7JmDhw5j3KR3ODHNZdP6LziZHCN75iU1KYc/ywcy7rKiXGEV+rNyYaSXBXTuEdFV2OY2A0DFenBdH+5qrEd9P8GGwCTgHF2bXc3LF+zpz62SEpy/cBEhXTsLst91CwE94xPiQMHXQrQKaOVJada7icIZJ5XRDQ3dhCjRbLvVEfpaf0ybPAHdX+xm60I+Dh05huHsTE6IHY0unTradPYN2q6nzngPlJSJ5OHhjpXLktG6VUtRpPiWBY+srSWBYj9ZBYEiB8xulqDooYDnnwNlcCLRGbNqzd/Ru+fL+H2vHuj3Sh/NwJGPCzmXRFfCm1aJ3L3n8sVJaB9SNTmhTj8XFuLYiZM2P7StrV6+FN4NvGwyaqxdvQLHT57G66F/4ORyzIz3Z+MsS3iktDRpgbCSpTKltiJ4ZduOofxULiwFRUJf91Xjhbfl9n2UbcwA7tyHS2gIXAKsq0pQmi8ARcdhuVO5criBazeCyacrQI8KRQx5o8p2czozi2WIWUKiQtvczMR3ENKlk4qXSlXOpcuVDGtRfzl6/rnWcmJBdvjocU7XlY1tDxwZUNnxeqi20uPbHWmcz3kf/BmjRgznZGqMLHiPF23B440HqvQj4B5GLWKAFlt1qRnw2DoLJl9W2zDgLFkfVenDCcyApfB7mFqNBPxe41RShrY0H+8Gwvny07UCqUpof7dzF+ihlUJnliOi7FVK3sy3XrKfB53FT5tkE5aybfKpvOVSQSVwFTMvSz9nbV3brv2zFLKV64DejovFkfQ9WJL0CQYPGihb/K5Zl+LAi1Ud1JZPpk6cOqOpn9TIvtaz3+6ktlrb9BmlpDWTFfvIgmfy5b+ZLgF8FiV2Ft5s+xTIoyEnVmMsbuqFNd2mEDVktykJsTFC5nX57CkhdaYiWKRTZzKxc/cekVV8twtqy+mSWcYozWhFpVpmGNy+HegsFmn33v3Y+NXXImt7r/5iLUKHDAVlkY5o8cL56NunN2c2cdoMbE/bzcmUGFnwXCMrA0Qd7XlZZ016weSqDgr1IxuTf7isC1G4ntVbVDBTwSuSZ506wkH+kiSzI93lK7miieKbUnlp4O/dv4+Bb0Yg6bNlQqAo/Y8cFSsU6opOmGLsWzGcmuq4yYkzhfqQEqqomDhMmvYu9uxLR9+BgzE0OgY7dqkD8dnCj7nki67t3malw0W7c5obuIJR/DGWzjfaJk1s1Znq1RHMy0/+Fw8T+HrJLb4/6LERJS1qRCuUJS5KRIHt3utV5Fy2JhlUDrQNDETXzh2xbftOZJ6t2KYrHPwzdT0oZXf0Y+e6L1ORMHGq0rCKcvvrsc7deyL7Yo6ivVRB6f75k0cEkdr8aPcYHBEl7YqgNoE4mrFX9Q5XduWRFwLMpUtrG3CcZzWmPtui1B4V4Mjthk2bbcARn//Dj8LWSNdX9sDRmUHAaSHK4oayLFaNtNRWG9Z+rubCpqMvnQicTajQGPBqXyR9PJfT0hdkUPgwTmbPKIJnb+iIt2TNgeVApPAgexErGeSTHkd+4mJG4ZtNXyqm89SfCtnpUyaBzgw9tO7zlfho9nuyXWhr1RLstoEBoH+vUMpy6z/zDOLHjEZOpr7PP2FsHNuWx3BzoxudcVOmcTIpo7htSo3Ettq2SeDBLCk4PVhN122p2PWJ3jT5ErMZJSVmFBUXw93dndVRTdGqZQt0Cu7A+ZS7GbHPEMUON28WCVsfJS1+vs0Q1LYN25oDBLUeP0VFxbh05QqyL+Sg9CH7SYhdj3XuGIzmv/UTh7K9tfqVsyMncp+l+sBjA5pCGHgOtknbpzMauiOga9s0NeNLCBrNVHHDItycSId3kJhITY32k0VAH3jsJqVW0hgQiPS4RfaAa+921pHZjYnJd4C1XKgfBFPrUU82I6OX5gjo2jY1ezUMf5UI6Fp5v8qMjEE0R8AAT3Ooap6hAV7Nw0TzjAzwNIeq5hka4NU8TDTPyABPc6hqnqEBXs3DRPOMDPA0h6rmGRrg1TxMNM/IAE9zqGqe4f8BEyA4qVlfhKUAAAAASUVORK5CYII=;" parent="1" vertex="1">
                    <mxGeometry x="860" y="330.5" width="131" height="59.01" as="geometry"/>
                </mxCell>
                <mxCell id="5" value="" style="shape=image;html=1;verticalAlign=top;verticalLabelPosition=bottom;labelBackgroundColor=#ffffff;imageAspect=0;aspect=fixed;image=https://cdn4.iconfinder.com/data/icons/socialcones/508/Github-128.png" parent="1" vertex="1">
                    <mxGeometry x="527" y="47" width="114" height="114" as="geometry"/>
                </mxCell>
                <mxCell id="6" value="&lt;font style=&quot;font-size: 14px&quot;&gt;エンジニア&lt;/font&gt;" style="rounded=1;whiteSpace=wrap;html=1;" parent="1" vertex="1">
                    <mxGeometry x="148" y="74" width="120" height="60" as="geometry"/>
                </mxCell>
                <mxCell id="7" value="" style="endArrow=classic;html=1;exitX=0;exitY=0.5;exitDx=0;exitDy=0;" parent="1" edge="1" source="4">
                    <mxGeometry width="50" height="50" relative="1" as="geometry">
                        <mxPoint x="500" y="360" as="sourcePoint"/>
                        <mxPoint x="310" y="360" as="targetPoint"/>
                    </mxGeometry>
                </mxCell>
                <mxCell id="8" value="&lt;font style=&quot;font-size: 20px&quot;&gt;nuxt generate&lt;/font&gt;" style="text;html=1;strokeColor=none;fillColor=none;align=center;verticalAlign=middle;whiteSpace=wrap;rounded=0;" parent="1" vertex="1">
                    <mxGeometry x="310" y="320" width="170" height="29" as="geometry"/>
                </mxCell>
                <mxCell id="11" value="" style="rounded=0;whiteSpace=wrap;html=1;labelBackgroundColor=none;fillColor=none;" parent="1" vertex="1">
                    <mxGeometry x="90" y="294" width="570" height="120" as="geometry"/>
                </mxCell>
                <mxCell id="12" value="Buld &amp;amp; Hosting" style="text;html=1;strokeColor=none;fillColor=none;align=center;verticalAlign=middle;whiteSpace=wrap;rounded=0;labelBackgroundColor=none;fontSize=20;" parent="1" vertex="1">
                    <mxGeometry x="300" y="260" width="190" height="20" as="geometry"/>
                </mxCell>
                <mxCell id="23" value="&lt;font style=&quot;font-size: 14px&quot;&gt;ユーザー&lt;/font&gt;" style="rounded=1;whiteSpace=wrap;html=1;" parent="1" vertex="1">
                    <mxGeometry x="860" y="510" width="120" height="60" as="geometry"/>
                </mxCell>
                <mxCell id="26" value="" style="endArrow=classic;html=1;fontSize=20;entryX=0.096;entryY=1.009;entryDx=0;entryDy=0;entryPerimeter=0;exitX=0.786;exitY=-0.025;exitDx=0;exitDy=0;exitPerimeter=0;" parent="1" edge="1" target="5" source="11">
                    <mxGeometry x="-1" relative="1" as="geometry">
                        <mxPoint x="540" y="290" as="sourcePoint"/>
                        <mxPoint x="541" y="160" as="targetPoint"/>
                        <mxPoint as="offset"/>
                    </mxGeometry>
                </mxCell>
                <mxCell id="27" value="Preview Link" style="edgeLabel;resizable=0;html=1;align=center;verticalAlign=middle;fontSize=14;" parent="26" connectable="0" vertex="1">
                    <mxGeometry relative="1" as="geometry"/>
                </mxCell>
                <mxCell id="28" value="" style="endArrow=classic;html=1;fontSize=20;entryX=0.94;entryY=-0.017;entryDx=0;entryDy=0;entryPerimeter=0;" parent="1" edge="1" target="11">
                    <mxGeometry relative="1" as="geometry">
                        <mxPoint x="626" y="162" as="sourcePoint"/>
                        <mxPoint x="625" y="290" as="targetPoint"/>
                    </mxGeometry>
                </mxCell>
                <mxCell id="29" value="Build hook" style="edgeLabel;resizable=0;html=1;align=center;verticalAlign=middle;fontSize=14;" parent="28" connectable="0" vertex="1">
                    <mxGeometry relative="1" as="geometry"/>
                </mxCell>
                <mxCell id="32" value="" style="endArrow=classic;html=1;fontSize=20;entryX=0;entryY=0.5;entryDx=0;entryDy=0;" parent="1" edge="1" target="3">
                    <mxGeometry relative="1" as="geometry">
                        <mxPoint x="660" y="359.65999999999997" as="sourcePoint"/>
                        <mxPoint x="850" y="360" as="targetPoint"/>
                    </mxGeometry>
                </mxCell>
                <mxCell id="33" value="Form Notification" style="edgeLabel;resizable=0;html=1;align=center;verticalAlign=middle;fontSize=14;" parent="32" connectable="0" vertex="1">
                    <mxGeometry relative="1" as="geometry"/>
                </mxCell>
                <mxCell id="36" value="" style="endArrow=classic;html=1;fontSize=20;exitX=0;exitY=0;exitDx=0;exitDy=0;entryX=1;entryY=1;entryDx=0;entryDy=0;" parent="1" edge="1" target="11" source="23">
                    <mxGeometry relative="1" as="geometry">
                        <mxPoint x="850" y="510" as="sourcePoint"/>
                        <mxPoint x="670" y="430" as="targetPoint"/>
                    </mxGeometry>
                </mxCell>
                <mxCell id="37" value="閲覧・問い合わせ" style="edgeLabel;resizable=0;html=1;align=center;verticalAlign=middle;fontSize=14;" parent="36" connectable="0" vertex="1">
                    <mxGeometry relative="1" as="geometry"/>
                </mxCell>
                <mxCell id="38" value="" style="endArrow=classic;html=1;fontSize=20;exitX=1;exitY=0.5;exitDx=0;exitDy=0;entryX=0;entryY=0.5;entryDx=0;entryDy=0;" parent="1" edge="1" target="5" source="6">
                    <mxGeometry relative="1" as="geometry">
                        <mxPoint x="280" y="103.66" as="sourcePoint"/>
                        <mxPoint x="510" y="104" as="targetPoint"/>
                    </mxGeometry>
                </mxCell>
                <mxCell id="39" value="Git push" style="edgeLabel;resizable=0;html=1;align=center;verticalAlign=middle;fontSize=14;" parent="38" connectable="0" vertex="1">
                    <mxGeometry relative="1" as="geometry"/>
                </mxCell>
                <mxCell id="4" value="" style="shape=image;verticalLabelPosition=bottom;labelBackgroundColor=#ffffff;verticalAlign=top;aspect=fixed;imageAspect=0;image=data:image/png,iVBORw0KGgoAAAANSUhEUgAAAIoAAABECAYAAABeZa2gAAAK3mlDQ1BJQ0MgUHJvZmlsZQAASImVlwdYU9kSgM+96Y2WEIqU0Jv0FkBK6KH3JiohCSSUGBMCgg2VxRWsqIiAuqKrIgquroCsBbFgWwQLdgVZFJR1sSAqKnuBR9jd9733vjf5TubPZM7MnPOdc7+5AFBCOGJxFqwEQLYoRxIV4M1ISExi4H4DZKAN8MAS0DlcqZgVERECEJnWf5cP3QCa0LcsJ2L9+///VVR4fCkXACgZ4VSelJuNcCsyXnPFkhwAUEcRu0FejniCbyNMkyAFIjwwwelT/GWCUycZrTTpExPlg7AhAHgyhyNJB4Bsg9gZudx0JA45AmEbEU8oQrgQYQ+ugMNDGMkLZmdnL5zgIYRNEX8xABQawszUv8RM/1v8VHl8DiddzlPrmhS8r1AqzuLk/59b878lO0s2ncMYGWSBJDAK0XRk/+5lLgyWsyg1LHyahbxJ/0kWyAJjp5kr9UmaZh7HN1g+NyssZJrThP5seZwcdsw086V+0dMsWRglz5Um8WFNM0cyk1eWGSu3C/hsefwCQUz8NOcK48KmWZoZHTzj4yO3S2RR8vr5ogDvmbz+8rVnS/+yXiFbPjdHEBMoXztnpn6+iDUTU5ogr43H9/Wb8YmV+4tzvOW5xFkRcn9+VoDcLs2Nls/NQQ7nzNwI+R5mcIIiphn4Aj8QgnwYIBY4AHtgB2xAJAA5/MU5E4vxWSjOlwjTBTkMFnLj+Ay2iGs1m2FnY4ecvIn7O3Uk3j+dvJdQ3pMZ2/xcAKy7EWPVjC3rGwBnRgBQ7JuxWaQCoOwAwLl6rkySO2VDT3xhABEoAhrQADrAAJgiTwg74ATcgBdScRAIBzEgEcwHXCAA2UAC8sBSsBIUg1KwCWwDlWA32AsOgiPgGGgCp8A5cAlcA53gDngIekA/eAWGwQcwBkEQDqJAVEgD0oWMIAvIDmJCHpAfFAJFQYlQCpQOiSAZtBRaDZVCZVAltAeqhX6CTkLnoCtQF3Qf6oUGobfQZxgFk2EarA0bw9YwE2bBwXAMPA9OhxfBBXARvAGugGvgw3AjfA6+Bt+Be+BX8AgKoEgoOkoPZYlionxQ4agkVBpKglqOKkGVo2pQ9agWVDvqFqoHNYT6hMaiqWgG2hLthg5Ex6K56EXo5eh16Er0QXQj+gL6FroXPYz+hqFgtDAWGFcMG5OAScfkYYox5Zj9mBOYi5g7mH7MBywWS8eaYJ2xgdhEbAZ2CXYddie2AduK7cL2YUdwOJwGzgLnjgvHcXA5uGLcDtxh3FncTVw/7iOehNfF2+H98Ul4EX4Vvhx/CH8GfxP/Aj9GUCIYEVwJ4QQeIZ+wkbCP0EK4QegnjBGViSZEd2IMMYO4klhBrCdeJD4iviORSPokF1IkSUgqJFWQjpIuk3pJn8gqZHOyDzmZLCNvIB8gt5Lvk99RKBRjihcliZJD2UCppZynPKF8VKAqWCmwFXgKKxSqFBoVbiq8ViQoGimyFOcrFiiWKx5XvKE4pERQMlbyUeIoLVeqUjqpdFdpRJmqbKscrpytvE75kPIV5QEVnIqxip8KT6VIZa/KeZU+KopqQPWhcqmrqfuoF6n9NCzNhMamZdBKaUdoHbRhVRVVB9U41cWqVaqnVXvoKLoxnU3Pom+kH6N30z+raaux1Phqa9Xq1W6qjarPUvdS56uXqDeo31H/rMHQ8NPI1Nis0aTxWBOtaa4ZqZmnuUvzoubQLNost1ncWSWzjs16oAVrmWtFaS3R2qt1XWtEW0c7QFusvUP7vPaQDl3HSydDZ6vOGZ1BXaquh65Qd6vuWd2XDFUGi5HFqGBcYAzraekF6sn09uh16I3pm+jH6q/Sb9B/bEA0YBqkGWw1aDMYNtQ1DDVcalhn+MCIYMQ0EhhtN2o3GjU2MY43XmPcZDxgom7CNikwqTN5ZEox9TRdZFpjetsMa8Y0yzTbadZpDps7mgvMq8xvWMAWThZCi50WXbMxs11mi2bXzL5rSbZkWeZa1ln2WtGtQqxWWTVZvbY2tE6y3mzdbv3NxtEmy2afzUNbFdsg21W2LbZv7cztuHZVdrftKfb+9ivsm+3fOFg48B12OdxzpDqGOq5xbHP86uTsJHGqdxp0NnROca52vsukMSOY65iXXTAu3i4rXE65fHJ1cs1xPeb6h5ulW6bbIbeBOSZz+HP2zelz13fnuO9x7/FgeKR4/ODR46nnyfGs8XzmZeDF89rv9YJlxspgHWa99rbxlnif8B71cfVZ5tPqi/IN8C3x7fBT8Yv1q/R74q/vn+5f5z8c4BiwJKA1EBMYHLg58C5bm81l17KHg5yDlgVdCCYHRwdXBj8LMQ+RhLSEwqFBoVtCH4UZhYnCmsJBODt8S/jjCJOIRRG/RGIjIyKrIp9H2UYtjWqPpkYviD4U/SHGO2ZjzMNY01hZbFucYlxyXG3caLxvfFl8T4J1wrKEa4maicLE5iRcUlzS/qSRuX5zt83tT3ZMLk7unmcyb/G8K/M152fNP71AcQFnwfEUTEp8yqGUL5xwTg1nJJWdWp06zPXhbue+4nnxtvIG+e78Mv6LNPe0srSBdPf0LemDAk9BuWBI6COsFL7JCMzYnTGaGZ55IHM8Kz6rIRufnZJ9UqQiyhRdWKizcPHCLrGFuFjcs8h10bZFw5JgyX4pJJ0nbc6hIY3SdZmp7DtZb65HblXux7y4vOOLlReLFl/PN89fm/+iwL/gxyXoJdwlbUv1lq5c2ruMtWzPcmh56vK2FQYrilb0FwYUHlxJXJm58tdVNqvKVr1fHb+6pUi7qLCo77uA7+qKFYolxXfXuK3Z/T36e+H3HWvt1+5Y+62EV3K11Ka0vPTLOu66q+tt11esH9+QtqFjo9PGXZuwm0Sbujd7bj5YplxWUNa3JXRL41bG1pKt77ct2Hal3KF893bidtn2noqQiuYdhjs27fhSKai8U+Vd1VCtVb22enQnb+fNXV676ndr7y7d/fkH4Q/39gTsaawxrinfi92bu/f5vrh97T8yf6zdr7m/dP/XA6IDPQejDl6oda6tPaR1aGMdXCerGzycfLjziO+R5nrL+j0N9IbSo+Co7OjLn1J+6j4WfKztOPN4/c9GP1efoJ4oaYQa8xuHmwRNPc2JzV0ng062tbi1nPjF6pcDp/ROVZ1WPb3xDPFM0ZnxswVnR1rFrUPn0s/1tS1oe3g+4fztC5EXOi4GX7x8yf/S+XZW+9nL7pdPXXG9cvIq82rTNadrjdcdr5/41fHXEx1OHY03nG80d7p0tnTN6Tpz0/PmuVu+ty7dZt++difsTld3bPe9u8l3e+7x7g3cz7r/5kHug7GHhY8wj0oeKz0uf6L1pOap2dOGHqee072+vdefRT972Mfte/Wb9Lcv/UXPKc/LX+i+qB2wGzg16D/Y+XLuy/5X4ldjQ8W/K/9e/dr09c9/eP1xfThhuP+N5M3423XvNN4deO/wvm0kYuTJh+wPY6MlHzU+HvzE/NT+Of7zi7G8L7gvFV/NvrZ8C/72aDx7fFzMkXAmWwEUMuC0NADeHkD640QAqJ0AEOdO9deTAk29E0wS+E881YNPihMA+woBmGi9whC9qxUAEy8AFJARgPwOagWwvb18/EukafZ2U7E0LwJAyh8fH1BD5rwD4Gvj+PjorfHxsVoAcHgA1j+d6usnROkw8ibTaWfjEvLg3XzwT5nq+f+yxn9qMFGBA/in/hMy9x1kCHY3LgAAAFZlWElmTU0AKgAAAAgAAYdpAAQAAAABAAAAGgAAAAAAA5KGAAcAAAASAAAARKACAAQAAAABAAAAiqADAAQAAAABAAAARAAAAABBU0NJSQAAAFNjcmVlbnNob3TgXooKAAAB1WlUWHRYTUw6Y29tLmFkb2JlLnhtcAAAAAAAPHg6eG1wbWV0YSB4bWxuczp4PSJhZG9iZTpuczptZXRhLyIgeDp4bXB0az0iWE1QIENvcmUgNi4wLjAiPgogICA8cmRmOlJERiB4bWxuczpyZGY9Imh0dHA6Ly93d3cudzMub3JnLzE5OTkvMDIvMjItcmRmLXN5bnRheC1ucyMiPgogICAgICA8cmRmOkRlc2NyaXB0aW9uIHJkZjphYm91dD0iIgogICAgICAgICAgICB4bWxuczpleGlmPSJodHRwOi8vbnMuYWRvYmUuY29tL2V4aWYvMS4wLyI+CiAgICAgICAgIDxleGlmOlBpeGVsWURpbWVuc2lvbj42ODwvZXhpZjpQaXhlbFlEaW1lbnNpb24+CiAgICAgICAgIDxleGlmOlBpeGVsWERpbWVuc2lvbj4xMzg8L2V4aWY6UGl4ZWxYRGltZW5zaW9uPgogICAgICAgICA8ZXhpZjpVc2VyQ29tbWVudD5TY3JlZW5zaG90PC9leGlmOlVzZXJDb21tZW50PgogICAgICA8L3JkZjpEZXNjcmlwdGlvbj4KICAgPC9yZGY6UkRGPgo8L3g6eG1wbWV0YT4KNoN7iAAAD4FJREFUeAHtWwlwVdUZ/kNAkEASwhIawgsSCAGSYDUEHUAEAQcIoMyAgyHaakEJbnW0oMROZ0SFYqd1ioDS2lIWax1FNq2slj0BhGxkAYQkJBAkwguJhqWm/3feO5fzLu+Fm7xgXnnnn3k5+7nn/Pe7/3ZOAn6ora0jTZoDN+BAixu062bNAcEBDRQNBEsc0ECxxCbdSQNFY8ASBzRQLLFJd9JA0RiwxAENFEts0p00UDQGLHFAA8USm3QnDRSNAUsc0ECxxCbdSQNFY8ASBzRQLLFJd9JA0RiwxAENFEts0p00UDQGLHFAA8USm3SnJgPKzvN2Kv6hVnP0FuVAS2/3Zb9ylaYczqMd39kpJLAVLYztSamR4d5Oq8f7GAe8AgpAMvpgNmVXVRPxzVuUZ2QXii1qsPjYm/ZyOY1WPQIkXzNILjpA4lgH7mkH0IrSCi+XpYf7GgcCGnML3wGSLAZJDdGPDI66ACFRRMrlghFJtOh4GSWEtKfU7l18bc/Nvp5dmftpd8Z+Yx1TJz1Etm4RRrkxGcy5cct2yj1SYAyfOmkiPcq/pqAGqx4BkkMMkmoGifhHDwaJpLo6mhvTg+yXr9KiE+VO8NRRqk3bLJJFSHdlHKAFf15iVA0eNPA6oCxZvpI+37yNgvlje+WZmRTXN9bor2aqqqrolTd/T6s/XatWizzmbSpqEFDsV9kmOaxIElYzBlgYJAnB7Si9t40G7TzkrCd66usiasH9Umxaslh9abn5BfTqGwuM7pASWdu/NMpqZj4Dzh1I1D5NkW8QULKqq+kCG6zXwOFcAoMEtCwhhuYdLaHsC2y3gLgaRlDawUIaENyW4kLbiepb9Q9eWGlZmbG9xqqU7HyHQyAnKilj6eyGUA/Jo9LgpEQaMihJVA0ZlKg2eZW3BBRIkum8+AmdO1HmwLspi9XOirLTtLL8rAGaub1sYiFvFJ7k1KGOAoTEqeO/AWRr24byGED9b2GwrP70M9qdecB4Ie5UitFYTyZ55HB6tX17sl+8KHrNfHya296fb97qUg+QbFj5N5e6pircEChC3cAmYcN1/dlzFNKyFaV2Daf06B7iV/zDJbovLESs58G92ZxKdcRZljTCreI0+LaW9NAXuTRvQE96pIdWQ/W9wODgYMre/m/KLiikUAaMJ/vkAjxOhR5lo/hmUb1AUUGClw4Q2C9foUUlZbToZBlNiwinZfF9jLXZbm/tlDBc9SPUDkBTR0M7hVIVG7gX+fdiJmwWoskaLAbf3GUAliFJ9RujuzIyXYbaIr3znFwmMxU8AkV4N9JwBUikC4yXzyAAZVex56PQ2/2j2R3uSiuKz9CqkrMUwOMAFgAox17DZYfN8tK+IuretjXd08UhiZQpLGdh8NmVLwpiV9LGLdsI7SBbZCShrSHuJ3R/Do9X5xj3wP2El2cm9C112hDqetAvh9W1UL+cj4+NcTvePB/K8GRyCoqMppD27QyporbV9zyMwZ7VeTChyifjAc6MmaexvaOpY4cOotUjUNadq7wWJxGSwTmbEyQwVKF2ACiE7xFk21FZRRO6dKD02B70dnw0LT5eTh+eOENDuoQK+6RFQABNtnWm6THdKDKoNWWetVNSI8Eyh70C1R44X5TDLudiWrx8lWC0mQlP/yKV3nr1N+ZqlzIY9daiJcItdWlwFhCTwBwqYGDA4rnuSPVc1q/84IYSQs4BlTN+2hOyKF6utD3MbUYnzqjPk/ZKysznDFsHfetbx7jUJ114B09LAkWYEOrD8OKnZOfRhE4daWgIvninzQHNo4AEEmZZfG8Gh52m7M+j9acryX7pCq1gSdJ3UyZN3ZdPPdiAzR6TRFOjutCM3t0of+IgejEuij4oLKP71x+kxzbn0mffsEHcBDRrTjrBVcQX546W/n2FaHfXhjrELMAopJ4IoBg6cTJ58kI8jWvOenPAzdP+ELBTeRcf28dFCrsARaibr7PYaK2ked8U07L+ffigj4UOQIIfCGBhkIzvEsZGbChNz4KIdIIJ7dwvkMu7v71Aq09WUMn3l1Br0B9zimlL2Xm6WHtF2Crpu4/SuuPeg0XGErpHRIgv0J2IxZevMkMuCpIkZdbzLm3qPCFsUEoCSFLSnpdFwUw8Cz+1HzqA2bINRmlTEOaRc9b3vARngM4MFKhld2QGkHmcoXoESHDAh7A806LiMgZDJ1rYJ5pm5LBfb4AlgD2fQFrYL1qABOMMEAmQEKVw2P6Z6AjhEv+z+CxLkwja+62dPvmmgn7VJ4J+d1dPWsOSZEV+OVVUX6LXGCyYfmJ0470hMG3x/Hk0dtQIsX78AQCSWYRLNxN1GzjMbWbCzDmvocmg2c+m0ZxnZxplgGMai/AcVgkgzAtgYh75Q33ytF+6qMM302dbVjcYb4XgAUk1ZOV56A/Ql5Y7YjHYC9Zv9qTMABo76gGX5QiJIkBywHnAJyQG9+E3B4BM6NyRxnP8xAEGGLJ1lN4rirLt1bT+TKUoo83WpjXbJlFUNvZemsUgWXqsnHqt30cfsVQBPbIthz458S0lf3GY0nbkC3d588OJ9M6wWBph60i/9VKy4MWqIMEzwQwzKMxqA18SGCcJX6sKEtTDKFy8YJ7sItLPPXyZLp18pJCsfDxYEj4WlcATlS9mtYO+Aijzjhc7rgoAJCAnWIq/r6XpOUVsi8SI+AlAMpTVDa4QvJx3QoBnaMdQev/OGCocnUR33N6GUjKO0LCth+gjliQteJ4otlP2stHagsEkvaD9FXaau+coDf4ogwrP19DLiXfQF5MSqazmknChHYto2N+4fu7PQszgKTl1ymXiDVtcg1Zpj6e6tMsCQAcGSjJ/gbLeF1MY8iqZ124O3Jk/LowVQEnleMj7cX1o2s/CKaEdwuyQHJywLbL+zDnh1cBwBUiWMSjmFZVwPpgy7vs5fZzUj0oZUP2/zORQfRHtYVDARmnBoMLk/UOD6BTbKXCNRb3TZUa5huMqS7JKaeyaA7Q0q4QGhodQew7M3UxSvxw8x+w+1hf2jut7DSgYa54Ldb5IkIgqyCFB1bVvMElHs9rBnsRbwWEeXNzHIrtSQvsgCmnVUpShXrL4UlIWx0DSY2w0viurICbkIW0Wsfu7qqRCSItABlULBoEDDI5gG6RIfEgQHblQI+qlREF9IM+D8IywgzldyzYLionh18cquPqmkap28JCoxMGWn1XC5zoNic9YnvgmdISUwCmzJEgRSBoY92qYwZ3awRghUZBBGH7ygSPUddMeit2WSStLzqBagAfAUGnHOXaJWcWsZlcY6kUFSQAkCb9xxy/AES9hVQOQAEQCLEAE/zisYqQTenam1wf3Vh+j803IAbOUkFLEbK+Y1ZRcgiHnIVU2DYqn0ftyqJhthXWXvxNfvDzHkQOQRnFUtYBtEtw72cWgyWWJA5UDyVHNdUJiMBC6t72N+nVoR+Xs2QiQOEEFtSMlCdLxAiQx6iOaLQ9j1io1lctr9Xne9IPkw96k9EAKaWI+BsCBpDsygILGhBAGyz3xIoiW2j2c1U6NuKlmC7pd3FQLZZUESbCaDdWhxw7RMD7DgWpJ4BPh5AFh4mS4lEGWf6GaTjE4nmBXGNS/QxBVXKwVYAGIIEmgdpD6Ekiw1tWL33GJvKLuViEcGkqgYE+QJhu3fmVsb9zIER737gIUjABY8Bu9K5t2srSA15LB4fgxu3IolwGAto1D4kVcBFJkn9OjgQ4DCAZ3DhGAGd0tzFjA/Ht609bIjlRUWUOF31XTgQqOngqQdGl2daN+ZVgwbp+ZPSVjI//nGUiLWcoeYLOoAcixDBRPZNgo5g5vx/ekjq1a0bK7YsSZTd75amGLHOH0PTZi3727t7CE4d0EMkCkrZJxxk7LC8pFrKSAXV+4vHP3HqPTLFEGdg1hYMRQ1mOD6V/j7mx2kGDPySbmvPLmAhfmmfmCQJvZADb38dUyzqggNSSpIEGdJ7WDNo9AgeTIG5UoJMp7R8upJXs1AAQM1z/klkAg0Ev9bAwWeDsOL+aa11NH31/+L5VV19JaDs9/VVJJS7NL6YXt+TSGXWG4xH3CgvD8Zid4A2ooHG5jStoLLu4jFgmm4ggAZ0o4E3IHFrMHVHLK/c205ty0J6lRn9rBej0CBY0hHNOo4vsnLYXEcEgOARZueyHzKM3oFUFxbKMIEDkN1UDpIrOkiQxqI1SNeAjPAZsE3s3MAd0xvU8QvjKE/lXCAdmA4Q+KE1ycAeEkF24zDh1BAM1iPmQ0E640qARQYSx+7oCl9v2p8uYPQz7XE4Bke71AQSfcc117XxyFsRoKZDAANEgRUf0TS5a/DOnHcZdAIWmEREE8BaBhSQOpcbrmshEvGd8TNolveDeSAUhhk7xrAgvqARiE+JGqBLtm/tzZapXIpz2e4iKdUImx+F1wXmu8blAzVIw1eTaQqO6iserSbggUdMY91zXDHGCRIABYlhedZhukln4dZ2P1Uycki0P9EPXliCyosLLakCS+HCcBo3au/Vi4kGLhbv7gcA33UXAop95JkV2ldFJVmWzzpTR5pOuBnxk47tbaoH8AgyE7dVuuiJXg5hZsE1xAWjvmTnrmP/l0kL0Z4f5yPQ76nk7oTlM2HhbqpqklCUS5+pUm8DmMu5cHNYHLPpLqu4Mq+2AMvB85DrZHAofvzSeusr85lc/EHCCsDUcDcn2wgxDVlWReuxwv2z2t2SoP5DwyxTjcq5G06t13bujpNQgomDifwZK6NY8u8iUlXHNEpHVSz3CazQd7Y9Yc5PqrQoI8lWCj2LC2tI0N2aYGidygThvHgbTZc+nDNevEYEi/kwf33HAiS6pHnaUvR1pXPhBHoWyzCG+HbRJcPDrAYfrX7+0l4iMIpsV2aEsRbMxqkKjca/48pJUECVZjRe2gX4OBgkGxHGn9x8g46sCRWqFquO61PccokeMkwyPDhESJaNfGZ1xgrNnfCeoO1wvg2qs05zk1BKe2uOavi8y6NnsuwaP566g4enJTrrhDgn/FAFhgsK7MP61B4pl1P3mL+SacXMDUhydYPv1ulESRDxJgGR1H7Vsz3ljdfFVaKdxmX4qTyLXq1JUDuE7gzsV37XWt5BVQMI2ULMPZy4EBm8iXjzT5NgfwL6ob+N9HpBdmZbUN9nqsTKr7+B4H4BIDGOZjBqsr1UCxyik/7+e16vFz/vnN9jVQ/OZVe7dRDRTv+Oc3ozVQ/OZVe7dRDRTv+Oc3ozVQ/OZVe7dRDRTv+Oc3ozVQ/OZVe7dRDRTv+Oc3ozVQ/OZVe7dRDRTv+Oc3ozVQ/OZVe7fR/wHzkko6kCmQNgAAAABJRU5ErkJggg==;" parent="1" vertex="1">
                    <mxGeometry x="503" y="326.01" width="138" height="68" as="geometry"/>
                </mxCell>
            </root>
        </mxGraphModel>
    </diagram>
</mxfile>
